PathFileType	4	(X/Y/Z)	c:/Users/goper/Files/vsCode/490R/osim_files/C10/C10_Fast_04.trc
DataRate	CameraRate	NumFrames	NumMarkers	Units                	OrigDataRate	OrigDataStartFrame	OrigNumFrames
250.00	250.00	8	36	mm	250.0	1541	3080
                Frame#	Time	LPSIS			LASIS			LTH1			LTH2			LTH3			LTH4			LLFE			LMFE			LSH1			LSH2			LSH3			LSH4			LLMAL			LMMAL			LCAL			LMTP5			LTOE			LMTP1			RPSIS			RASIS			RTH1			RTH2			RTH3			RTH4			RLFE			RMFE			RSH1			RSH2			RSH3			RSH4			RLMAL			RMMAL			RCAL			RMTP1			RTOE			RMTP5		
		X1	Y1	Z1	X2	Y2	Z2	X3	Y3	Z3	X4	Y4	Z4	X5	Y5	Z5	X6	Y6	Z6	X7	Y7	Z7	X8	Y8	Z8	X9	Y9	Z9	X10	Y10	Z10	X11	Y11	Z11	X12	Y12	Z12	X13	Y13	Z13	X14	Y14	Z14	X15	Y15	Z15	X16	Y16	Z16	X17	Y17	Z17	X18	Y18	Z18	X19	Y19	Z19	X20	Y20	Z20	X21	Y21	Z21	X22	Y22	Z22	X23	Y23	Z23	X24	Y24	Z24	X25	Y25	Z25	X26	Y26	Z26	X27	Y27	Z27	X28	Y28	Z28	X29	Y29	Z29	X30	Y30	Z30	X31	Y31	Z31	X32	Y32	Z32	X33	Y33	Z33	X34	Y34	Z34	X35	Y35	Z35	X36	Y36	Z36

1541	6.16000	0.00000	0.00000	0.00000	-3319.60596	1001.99579	377.03720	-3236.92480	773.53381	414.86154	-3235.91260	724.03363	407.20023	0.00000	0.00000	0.00000	0.00000	0.00000	0.00000	-3259.80444	516.84167	327.12357	-3179.02686	438.27139	331.21066	-3285.81616	524.67480	213.61400	0.00000	0.00000	0.00000	0.00000	0.00000	0.00000	0.00000	0.00000	0.00000	-3090.93433	94.75941	263.69080	0.00000	0.00000	0.00000	-3027.60864	44.39403	220.99646	0.00000	0.00000	0.00000	0.00000	0.00000	0.00000	-3238.57886	50.66183	210.70412	-3179.28345	1004.17877	146.82332	-3327.04102	988.05432	44.45852	0.00000	0.00000	0.00000	-3142.89355	343.41071	236.53850	0.00000	0.00000	0.00000	0.00000	0.00000	0.00000	0.00000	0.00000	0.00000	0.00000	0.00000	0.00000	-3423.18213	396.48059	57.45328	-3437.98340	355.68961	54.50573	0.00000	0.00000	0.00000	-3489.55396	367.66040	48.69480	-3527.84131	100.82307	87.30878	0.00000	0.00000	0.00000	-3490.54468	39.43742	134.24582	0.00000	0.00000	0.00000	0.00000	0.00000	0.00000	-3650.54639	78.52261	39.86930
1542	6.16400	0.00000	0.00000	0.00000	-3324.59058	1001.21155	376.74838	-3240.38428	773.30664	414.52206	0.00000	0.00000	0.00000	0.00000	0.00000	0.00000	0.00000	0.00000	0.00000	-3262.28540	516.80194	327.01852	-3181.03125	438.69553	330.82095	-3289.10693	524.45056	213.54109	0.00000	0.00000	0.00000	0.00000	0.00000	0.00000	0.00000	0.00000	0.00000	-3091.11646	95.14176	263.37195	0.00000	0.00000	0.00000	-3027.75513	44.71610	220.71283	0.00000	0.00000	0.00000	-3193.72168	25.52944	166.55972	-3238.54614	50.56917	210.63994	-3185.08838	1003.42145	145.96913	-3332.57080	986.63440	44.17854	0.00000	0.00000	0.00000	-3144.75171	343.31949	236.12971	0.00000	0.00000	0.00000	0.00000	0.00000	0.00000	0.00000	0.00000	0.00000	-3480.56714	498.03717	60.03302	-3431.04321	393.92685	57.26969	-3447.19043	353.20215	54.33369	0.00000	0.00000	0.00000	-3498.40308	366.74200	48.90117	-3543.69702	101.17113	87.15355	0.00000	0.00000	0.00000	-3507.64355	38.88066	133.57838	0.00000	0.00000	0.00000	0.00000	0.00000	0.00000	-3667.07324	82.00681	40.73758
1543	6.16800	0.00000	0.00000	0.00000	-3329.70166	1000.48761	376.47031	-3241.55957	771.16772	413.66736	-3282.11426	752.73505	405.02170	0.00000	0.00000	0.00000	0.00000	0.00000	0.00000	-3264.79517	516.76819	326.91949	-3183.14355	439.20148	330.38693	-3292.46167	524.21948	213.46570	0.00000	0.00000	0.00000	0.00000	0.00000	0.00000	0.00000	0.00000	0.00000	-3091.32104	95.56313	262.99185	0.00000	0.00000	0.00000	-3027.97827	45.29830	220.52145	0.00000	0.00000	0.00000	-3193.89844	25.81739	166.38728	-3238.60889	50.56837	210.61606	-3190.82690	1002.68427	145.06061	0.00000	0.00000	0.00000	0.00000	0.00000	0.00000	-3146.55981	343.27692	235.66068	0.00000	0.00000	0.00000	0.00000	0.00000	0.00000	0.00000	0.00000	0.00000	0.00000	0.00000	0.00000	-3439.21313	391.43069	56.99995	-3456.29126	350.92435	54.03884	0.00000	0.00000	0.00000	-3507.18164	365.84741	49.21495	-3559.19336	101.73441	87.19484	0.00000	0.00000	0.00000	0.00000	0.00000	0.00000	0.00000	0.00000	0.00000	0.00000	0.00000	0.00000	-3683.35864	85.72343	41.79057
1544	6.17200	0.00000	0.00000	0.00000	-3334.93311	999.77563	376.15079	-3245.08203	771.00781	413.29980	0.00000	0.00000	0.00000	0.00000	0.00000	0.00000	0.00000	0.00000	0.00000	-3267.34424	516.72839	326.80313	-3185.39404	439.74353	329.93567	-3296.05176	524.06616	213.37537	0.00000	0.00000	0.00000	0.00000	0.00000	0.00000	0.00000	0.00000	0.00000	-3091.57788	96.00969	262.62607	0.00000	0.00000	0.00000	-3028.26416	46.06813	220.14206	0.00000	0.00000	0.00000	-3194.35620	26.26267	166.17709	0.00000	0.00000	0.00000	-3196.78174	1001.92194	144.27892	0.00000	0.00000	0.00000	0.00000	0.00000	0.00000	-3148.56494	343.23154	235.14246	0.00000	0.00000	0.00000	0.00000	0.00000	0.00000	0.00000	0.00000	0.00000	-3490.42285	494.18542	60.58854	-3447.73096	389.09564	56.79449	-3465.62915	348.89182	53.72467	0.00000	0.00000	0.00000	-3516.14404	365.14993	49.53957	-3574.17822	102.26669	87.38289	0.00000	0.00000	0.00000	-3534.41211	39.60526	131.29094	0.00000	0.00000	0.00000	0.00000	0.00000	0.00000	-3698.95361	89.49081	42.98436
1545	6.17600	0.00000	0.00000	0.00000	-3340.26880	999.05359	375.82050	-3250.91699	772.84668	413.62378	-3289.90381	752.75018	404.89758	0.00000	0.00000	0.00000	0.00000	0.00000	0.00000	-3270.02515	516.74182	326.72412	-3187.56006	440.25702	329.43311	-3299.69092	523.87531	213.31302	0.00000	0.00000	0.00000	0.00000	0.00000	0.00000	0.00000	0.00000	0.00000	-3091.80420	96.53986	262.22211	0.00000	0.00000	0.00000	-3028.56567	46.91729	219.77341	0.00000	0.00000	0.00000	0.00000	0.00000	0.00000	-3238.79858	50.59953	210.50253	-3202.69556	1001.15308	143.44798	0.00000	0.00000	0.00000	0.00000	0.00000	0.00000	-3150.60596	343.22528	234.63663	0.00000	0.00000	0.00000	0.00000	0.00000	0.00000	0.00000	0.00000	0.00000	0.00000	0.00000	0.00000	-3456.19043	386.99445	56.51471	-3474.99512	347.10220	53.40838	0.00000	0.00000	0.00000	-3524.87012	364.43896	49.97866	-3588.67505	102.82597	87.62984	0.00000	0.00000	0.00000	-3550.03809	39.20332	130.88069	0.00000	0.00000	0.00000	0.00000	0.00000	0.00000	-3713.99585	93.34454	44.26261
1546	6.18000	0.00000	0.00000	0.00000	-3345.82324	998.49408	375.46271	-3252.31348	770.71039	412.49567	-3293.86035	752.75244	404.86829	0.00000	0.00000	0.00000	0.00000	0.00000	0.00000	-3272.80005	516.76520	326.63889	-3189.90723	440.75385	328.94864	0.00000	0.00000	0.00000	-3228.27368	305.39865	153.73653	0.00000	0.00000	0.00000	-3213.71582	316.76340	205.11868	-3092.08984	97.11523	261.85590	0.00000	0.00000	0.00000	-3028.73096	47.87074	219.44116	0.00000	0.00000	0.00000	-3213.28833	913.12939	27.71027	0.00000	0.00000	0.00000	-3208.51074	1000.36322	142.58209	0.00000	0.00000	0.00000	0.00000	0.00000	0.00000	-3152.65869	343.16193	234.13318	0.00000	0.00000	0.00000	-3142.78735	336.04019	289.10358	0.00000	0.00000	0.00000	-3197.94312	402.46252	329.68811	-3464.67749	385.11383	56.25748	-3484.27930	345.44705	53.09117	0.00000	0.00000	0.00000	-3533.77539	364.00992	50.44321	-3602.75000	103.50220	87.87511	0.00000	0.00000	0.00000	-3576.16968	35.66776	133.22191	0.00000	0.00000	0.00000	0.00000	0.00000	0.00000	-3729.74146	97.28868	46.62537
1547	6.18400	0.00000	0.00000	0.00000	-3351.35498	997.81384	375.17685	-3256.12524	770.67572	412.05539	-3297.87207	752.82361	404.78955	0.00000	0.00000	0.00000	0.00000	0.00000	0.00000	-3275.62231	516.78711	326.53070	-3192.27222	441.31711	328.42545	0.00000	0.00000	0.00000	-3231.46899	303.41571	154.50058	0.00000	0.00000	0.00000	-3216.28027	316.66785	205.92575	-3092.42920	97.67393	261.47205	0.00000	0.00000	0.00000	-3029.04077	48.77320	219.10397	0.00000	0.00000	0.00000	0.00000	0.00000	0.00000	0.00000	0.00000	0.00000	-3214.53223	999.58691	141.76820	0.00000	0.00000	0.00000	0.00000	0.00000	0.00000	-3154.83765	343.14621	233.67133	0.00000	0.00000	0.00000	-3145.30786	335.42139	288.47479	0.00000	0.00000	0.00000	0.00000	0.00000	0.00000	-3473.04663	383.26550	55.73387	-3493.48242	343.99985	52.70802	0.00000	0.00000	0.00000	-3542.55737	363.67526	50.94851	-3616.38574	104.33398	88.28721	0.00000	0.00000	0.00000	0.00000	0.00000	0.00000	0.00000	0.00000	0.00000	0.00000	0.00000	0.00000	-3742.81152	100.71866	47.26989
1548	6.18800	0.00000	0.00000	0.00000	-3356.77173	997.15332	374.78009	-3259.78320	770.56305	411.67178	-3301.91235	752.89301	404.74106	0.00000	0.00000	0.00000	0.00000	0.00000	0.00000	-3278.63721	516.86768	326.46008	-3194.80103	441.91309	327.90970	0.00000	0.00000	0.00000	-3234.68042	301.57083	155.23788	0.00000	0.00000	0.00000	-3218.89282	316.70599	206.68253	-3092.80249	98.34528	261.10339	0.00000	0.00000	0.00000	-3029.24316	49.82263	218.82043	0.00000	0.00000	0.00000	-3225.88965	910.77313	27.04542	0.00000	0.00000	0.00000	-3220.43579	998.92480	141.00166	0.00000	0.00000	0.00000	0.00000	0.00000	0.00000	-3157.05786	343.09509	233.11444	0.00000	0.00000	0.00000	-3147.95752	335.09726	287.84439	0.00000	0.00000	0.00000	-3004.10742	558.55957	395.37024	-3481.48877	381.61276	55.21870	-3502.67383	342.77899	52.36878	0.00000	0.00000	0.00000	-3551.19702	363.47809	51.39853	-3629.83179	105.37113	88.79201	0.00000	0.00000	0.00000	0.00000	0.00000	0.00000	0.00000	0.00000	0.00000	0.00000	0.00000	0.00000	-3756.46338	104.19376	48.93327
